<mxfile host="www.draw.io" modified="2019-12-23T12:54:04.286Z" agent="Mozilla/5.0 (Windows NT 10.0; Win64; x64) AppleWebKit/537.36 (KHTML, like Gecko) Chrome/78.0.3904.108 Safari/537.36" etag="K8GbTZ2GT42eLpOt2VF5" version="12.4.3" type="github" pages="1">
  <diagram id="-_l58SXgxwbJDNNeyVSk" name="Page-1">
    <mxGraphModel dx="1102" dy="533" grid="1" gridSize="10" guides="1" tooltips="1" connect="1" arrows="1" fold="1" page="1" pageScale="1" pageWidth="827" pageHeight="1169" math="0" shadow="0">
      <root>
        <mxCell id="0"/>
        <mxCell id="1" parent="0"/>
        <mxCell id="lsn9ZuNntDgd81Zzlmcq-1" value="" style="rounded=0;whiteSpace=wrap;html=1;" vertex="1" parent="1">
          <mxGeometry x="100" y="40" width="410" height="180" as="geometry"/>
        </mxCell>
        <mxCell id="lsn9ZuNntDgd81Zzlmcq-2" value="" style="rounded=0;whiteSpace=wrap;html=1;" vertex="1" parent="1">
          <mxGeometry x="170" y="210" width="60" height="20" as="geometry"/>
        </mxCell>
        <mxCell id="lsn9ZuNntDgd81Zzlmcq-3" value="" style="rounded=0;whiteSpace=wrap;html=1;" vertex="1" parent="1">
          <mxGeometry x="380" y="210" width="60" height="20" as="geometry"/>
        </mxCell>
        <mxCell id="lsn9ZuNntDgd81Zzlmcq-4" value="tx_ring0" style="rounded=1;whiteSpace=wrap;html=1;" vertex="1" parent="1">
          <mxGeometry x="210" y="150" width="80" height="35" as="geometry"/>
        </mxCell>
        <mxCell id="lsn9ZuNntDgd81Zzlmcq-5" value="K-V Cache" style="rounded=1;whiteSpace=wrap;html=1;fillColor=#dae8fc;strokeColor=#6c8ebf;" vertex="1" parent="1">
          <mxGeometry x="245" y="60" width="120" height="55" as="geometry"/>
        </mxCell>
        <mxCell id="lsn9ZuNntDgd81Zzlmcq-6" value="rx_ring0" style="rounded=1;whiteSpace=wrap;html=1;" vertex="1" parent="1">
          <mxGeometry x="110" y="150" width="80" height="35" as="geometry"/>
        </mxCell>
        <mxCell id="lsn9ZuNntDgd81Zzlmcq-7" value="rx_ring1" style="rounded=1;whiteSpace=wrap;html=1;" vertex="1" parent="1">
          <mxGeometry x="322" y="150" width="80" height="35" as="geometry"/>
        </mxCell>
        <mxCell id="lsn9ZuNntDgd81Zzlmcq-8" value="tx_ring1" style="rounded=1;whiteSpace=wrap;html=1;" vertex="1" parent="1">
          <mxGeometry x="420" y="150" width="80" height="35" as="geometry"/>
        </mxCell>
        <mxCell id="lsn9ZuNntDgd81Zzlmcq-9" value="eth0" style="text;html=1;strokeColor=none;fillColor=none;align=center;verticalAlign=middle;whiteSpace=wrap;rounded=0;" vertex="1" parent="1">
          <mxGeometry x="130" y="220" width="40" height="20" as="geometry"/>
        </mxCell>
        <mxCell id="lsn9ZuNntDgd81Zzlmcq-10" value="eth1" style="text;html=1;strokeColor=none;fillColor=none;align=center;verticalAlign=middle;whiteSpace=wrap;rounded=0;" vertex="1" parent="1">
          <mxGeometry x="440" y="220" width="40" height="20" as="geometry"/>
        </mxCell>
        <mxCell id="lsn9ZuNntDgd81Zzlmcq-14" value="" style="curved=1;endArrow=classic;html=1;exitX=0.25;exitY=0;exitDx=0;exitDy=0;entryX=0.5;entryY=1;entryDx=0;entryDy=0;fillColor=#0050ef;strokeColor=#001DBC;" edge="1" parent="1" source="lsn9ZuNntDgd81Zzlmcq-2" target="lsn9ZuNntDgd81Zzlmcq-6">
          <mxGeometry width="50" height="50" relative="1" as="geometry">
            <mxPoint x="100" y="330" as="sourcePoint"/>
            <mxPoint x="170" y="260" as="targetPoint"/>
            <Array as="points">
              <mxPoint x="170" y="210"/>
            </Array>
          </mxGeometry>
        </mxCell>
        <mxCell id="lsn9ZuNntDgd81Zzlmcq-15" value="" style="curved=1;endArrow=classic;html=1;exitX=0.5;exitY=0;exitDx=0;exitDy=0;entryX=0;entryY=0.5;entryDx=0;entryDy=0;fillColor=#0050ef;strokeColor=#001DBC;" edge="1" parent="1" source="lsn9ZuNntDgd81Zzlmcq-6" target="lsn9ZuNntDgd81Zzlmcq-5">
          <mxGeometry width="50" height="50" relative="1" as="geometry">
            <mxPoint x="150" y="140" as="sourcePoint"/>
            <mxPoint x="200" y="90" as="targetPoint"/>
            <Array as="points">
              <mxPoint x="150" y="120"/>
              <mxPoint x="190" y="80"/>
            </Array>
          </mxGeometry>
        </mxCell>
        <mxCell id="lsn9ZuNntDgd81Zzlmcq-16" value="" style="curved=1;endArrow=classic;html=1;exitX=1;exitY=0.5;exitDx=0;exitDy=0;entryX=0.5;entryY=0;entryDx=0;entryDy=0;fillColor=#0050ef;strokeColor=#001DBC;" edge="1" parent="1" source="lsn9ZuNntDgd81Zzlmcq-5" target="lsn9ZuNntDgd81Zzlmcq-8">
          <mxGeometry width="50" height="50" relative="1" as="geometry">
            <mxPoint x="390" y="100" as="sourcePoint"/>
            <mxPoint x="485" y="37.5" as="targetPoint"/>
            <Array as="points">
              <mxPoint x="410" y="80"/>
              <mxPoint x="460" y="110"/>
            </Array>
          </mxGeometry>
        </mxCell>
        <mxCell id="lsn9ZuNntDgd81Zzlmcq-17" value="" style="curved=1;endArrow=classic;html=1;exitX=0.5;exitY=1;exitDx=0;exitDy=0;entryX=0.75;entryY=0;entryDx=0;entryDy=0;fillColor=#0050ef;strokeColor=#001DBC;" edge="1" parent="1" source="lsn9ZuNntDgd81Zzlmcq-8" target="lsn9ZuNntDgd81Zzlmcq-3">
          <mxGeometry width="50" height="50" relative="1" as="geometry">
            <mxPoint x="445" y="230" as="sourcePoint"/>
            <mxPoint x="410" y="205" as="targetPoint"/>
            <Array as="points">
              <mxPoint x="450" y="200"/>
            </Array>
          </mxGeometry>
        </mxCell>
        <mxCell id="lsn9ZuNntDgd81Zzlmcq-19" value="" style="curved=1;endArrow=classic;html=1;exitX=0.25;exitY=0;exitDx=0;exitDy=0;entryX=0.5;entryY=1;entryDx=0;entryDy=0;fillColor=#d80073;strokeColor=#A50040;" edge="1" parent="1" source="lsn9ZuNntDgd81Zzlmcq-3" target="lsn9ZuNntDgd81Zzlmcq-7">
          <mxGeometry width="50" height="50" relative="1" as="geometry">
            <mxPoint x="470" y="195" as="sourcePoint"/>
            <mxPoint x="435" y="220" as="targetPoint"/>
            <Array as="points">
              <mxPoint x="370" y="200"/>
            </Array>
          </mxGeometry>
        </mxCell>
        <mxCell id="lsn9ZuNntDgd81Zzlmcq-20" value="" style="curved=1;endArrow=classic;html=1;entryX=0.75;entryY=1;entryDx=0;entryDy=0;fillColor=#d80073;strokeColor=#A50040;" edge="1" parent="1" target="lsn9ZuNntDgd81Zzlmcq-5">
          <mxGeometry width="50" height="50" relative="1" as="geometry">
            <mxPoint x="365" y="150" as="sourcePoint"/>
            <mxPoint x="332" y="125" as="targetPoint"/>
            <Array as="points">
              <mxPoint x="365" y="130"/>
            </Array>
          </mxGeometry>
        </mxCell>
        <mxCell id="lsn9ZuNntDgd81Zzlmcq-23" value="" style="curved=1;endArrow=classic;html=1;exitX=0.5;exitY=1;exitDx=0;exitDy=0;fillColor=#d80073;strokeColor=#A50040;" edge="1" parent="1" source="lsn9ZuNntDgd81Zzlmcq-4">
          <mxGeometry width="50" height="50" relative="1" as="geometry">
            <mxPoint x="240" y="245" as="sourcePoint"/>
            <mxPoint x="210" y="210" as="targetPoint"/>
            <Array as="points">
              <mxPoint x="250" y="200"/>
            </Array>
          </mxGeometry>
        </mxCell>
        <mxCell id="lsn9ZuNntDgd81Zzlmcq-24" value="" style="curved=1;endArrow=classic;html=1;exitX=0.25;exitY=1;exitDx=0;exitDy=0;entryX=0.5;entryY=0;entryDx=0;entryDy=0;fillColor=#d80073;strokeColor=#A50040;" edge="1" parent="1" source="lsn9ZuNntDgd81Zzlmcq-5" target="lsn9ZuNntDgd81Zzlmcq-4">
          <mxGeometry width="50" height="50" relative="1" as="geometry">
            <mxPoint x="270" y="150" as="sourcePoint"/>
            <mxPoint x="300" y="115" as="targetPoint"/>
            <Array as="points">
              <mxPoint x="250" y="120"/>
            </Array>
          </mxGeometry>
        </mxCell>
        <mxCell id="lsn9ZuNntDgd81Zzlmcq-25" value="" style="rounded=0;whiteSpace=wrap;html=1;" vertex="1" parent="1">
          <mxGeometry x="100" y="300" width="410" height="90" as="geometry"/>
        </mxCell>
        <mxCell id="lsn9ZuNntDgd81Zzlmcq-35" value="" style="edgeStyle=orthogonalEdgeStyle;curved=1;rounded=0;orthogonalLoop=1;jettySize=auto;html=1;startArrow=classic;startFill=1;" edge="1" parent="1" source="lsn9ZuNntDgd81Zzlmcq-26" target="lsn9ZuNntDgd81Zzlmcq-3">
          <mxGeometry relative="1" as="geometry"/>
        </mxCell>
        <mxCell id="lsn9ZuNntDgd81Zzlmcq-26" value="" style="rounded=0;whiteSpace=wrap;html=1;" vertex="1" parent="1">
          <mxGeometry x="380" y="290" width="60" height="20" as="geometry"/>
        </mxCell>
        <mxCell id="lsn9ZuNntDgd81Zzlmcq-33" value="" style="edgeStyle=orthogonalEdgeStyle;curved=1;rounded=0;orthogonalLoop=1;jettySize=auto;html=1;startArrow=classic;startFill=1;" edge="1" parent="1" source="lsn9ZuNntDgd81Zzlmcq-27" target="lsn9ZuNntDgd81Zzlmcq-2">
          <mxGeometry relative="1" as="geometry"/>
        </mxCell>
        <mxCell id="lsn9ZuNntDgd81Zzlmcq-27" value="" style="rounded=0;whiteSpace=wrap;html=1;" vertex="1" parent="1">
          <mxGeometry x="170" y="290" width="60" height="20" as="geometry"/>
        </mxCell>
        <mxCell id="lsn9ZuNntDgd81Zzlmcq-28" value="eth0" style="text;html=1;strokeColor=none;fillColor=none;align=center;verticalAlign=middle;whiteSpace=wrap;rounded=0;" vertex="1" parent="1">
          <mxGeometry x="130" y="280" width="40" height="20" as="geometry"/>
        </mxCell>
        <mxCell id="lsn9ZuNntDgd81Zzlmcq-29" value="eth1" style="text;html=1;strokeColor=none;fillColor=none;align=center;verticalAlign=middle;whiteSpace=wrap;rounded=0;" vertex="1" parent="1">
          <mxGeometry x="440" y="280" width="40" height="20" as="geometry"/>
        </mxCell>
        <mxCell id="lsn9ZuNntDgd81Zzlmcq-31" value="DPDK&lt;br&gt;Simple Pktgen" style="rounded=1;whiteSpace=wrap;html=1;fillColor=#dae8fc;strokeColor=#6c8ebf;" vertex="1" parent="1">
          <mxGeometry x="245" y="330" width="115" height="45" as="geometry"/>
        </mxCell>
        <mxCell id="lsn9ZuNntDgd81Zzlmcq-32" value="" style="curved=1;endArrow=classic;html=1;exitX=0;exitY=0.5;exitDx=0;exitDy=0;entryX=0.5;entryY=1;entryDx=0;entryDy=0;startArrow=classic;startFill=1;" edge="1" parent="1" source="lsn9ZuNntDgd81Zzlmcq-31" target="lsn9ZuNntDgd81Zzlmcq-27">
          <mxGeometry width="50" height="50" relative="1" as="geometry">
            <mxPoint x="190" y="490" as="sourcePoint"/>
            <mxPoint x="240" y="440" as="targetPoint"/>
            <Array as="points">
              <mxPoint x="230" y="353"/>
              <mxPoint x="210" y="340"/>
            </Array>
          </mxGeometry>
        </mxCell>
        <mxCell id="lsn9ZuNntDgd81Zzlmcq-34" value="" style="curved=1;endArrow=classic;html=1;entryX=0.5;entryY=1;entryDx=0;entryDy=0;exitX=1;exitY=0.5;exitDx=0;exitDy=0;startArrow=classic;startFill=1;" edge="1" parent="1" source="lsn9ZuNntDgd81Zzlmcq-31" target="lsn9ZuNntDgd81Zzlmcq-26">
          <mxGeometry width="50" height="50" relative="1" as="geometry">
            <mxPoint x="310" y="470" as="sourcePoint"/>
            <mxPoint x="360" y="420" as="targetPoint"/>
            <Array as="points">
              <mxPoint x="390" y="350"/>
              <mxPoint x="410" y="340"/>
            </Array>
          </mxGeometry>
        </mxCell>
      </root>
    </mxGraphModel>
  </diagram>
</mxfile>
